<?xml version="1.0" standalone="no"?>
<!DOCTYPE svg PUBLIC "-//W3C//DTD SVG 20010904//EN"
 "http://www.w3.org/TR/2001/REC-SVG-20010904/DTD/svg10.dtd">
<svg version="1.0" xmlns="http://www.w3.org/2000/svg"
 width="178.000000pt" height="178.000000pt" viewBox="0 0 178.000000 178.000000"
 preserveAspectRatio="xMidYMid meet">
<metadata>
Created by potrace 1.14, written by Peter Selinger 2001-2017
</metadata>
<g transform="translate(0.000000,178.000000) scale(0.100000,-0.100000)"
fill="#000000" stroke="none">
<path d="M113 1747 c-12 -5 -26 -21 -30 -36 -5 -14 -9 -387 -8 -829 l1 -802
21 -22 c20 -20 32 -21 198 -22 97 -1 179 3 182 7 3 5 6 49 7 98 1 97 9 113 61
127 17 4 182 7 368 7 l338 -1 25 -26 c24 -24 26 -32 26 -117 -1 -63 3 -91 11
-92 7 0 90 -1 185 -1 164 0 173 1 191 21 18 20 19 58 19 836 1 778 0 815 -18
837 -18 22 -23 23 -202 23 l-183 0 -3 -94 c-3 -107 -11 -127 -53 -138 -17 -5
-186 -8 -375 -8 -415 1 -386 -9 -390 135 -1 50 -5 94 -9 98 -10 11 -338 10
-362 -1z m244 -80 c3 -4 6 -37 6 -73 0 -50 -4 -70 -16 -79 -19 -13 -124 -10
-142 5 -15 12 -12 139 3 149 15 9 139 7 149 -2z m1214 4 c13 -1 16 -15 17 -76
0 -41 -4 -77 -9 -81 -21 -12 -141 -7 -150 7 -5 8 -9 42 -9 76 0 46 4 64 16 71
13 7 63 8 135 3z m-329 -398 c59 -12 60 -20 60 -384 0 -404 10 -376 -145 -378
-97 -2 -479 -3 -578 -2 -32 1 -53 8 -70 22 l-24 21 -2 326 c-1 196 3 338 9
353 5 15 19 31 31 37 23 12 665 16 719 5z m-886 -78 c10 -26 10 -109 0 -132
-8 -20 -15 -22 -75 -20 -36 1 -71 5 -76 9 -12 7 -13 127 -1 146 11 19 145 16
152 -3z m1228 -1 c11 -29 7 -132 -6 -141 -18 -11 -131 -12 -145 -1 -12 9 -17
108 -7 141 7 24 149 26 158 1z m-1232 -462 c6 -6 12 -41 12 -77 1 -56 -2 -66
-18 -71 -30 -10 -127 -5 -141 6 -15 12 -11 140 4 149 18 11 130 6 143 -7z
m1229 -5 c6 -9 9 -45 7 -79 l-3 -63 -40 -5 c-22 -3 -58 -3 -80 0 l-40 5 -3 68
c-2 38 1 74 7 81 6 7 36 12 76 11 52 0 69 -4 76 -18z m-1223 -464 c9 -19 9
-111 0 -135 -5 -11 -24 -15 -77 -15 -39 -1 -74 3 -77 9 -10 16 -12 122 -2 141
13 25 143 25 156 0z m1230 -56 c2 -41 -1 -74 -8 -82 -12 -15 -125 -16 -148 -2
-16 10 -14 139 2 150 6 4 43 6 81 5 l70 -3 3 -68z"/>
</g>
</svg>
